{"asset":{"version":"2.0","generator":"THREE.GLTFExporter"},"scenes":[{"name":"default","nodes":[0,1,2,3]}],"scene":0,"nodes":[{"name":"default","mesh":0},{"matrix":[1,0,0,0,0,1,0,0,0,0,1,0,0,3.4,0,1],"name":"Wall","extras":{"data":{"name":"Wall","points":[{"name":"Origin","pos":{"x":0,"y":0,"z":0}}],"billboard":{"enabled":false,"y":false},"directional":{"enabled":false,"mode":"cameraAngle","angles":[{"suffix":"_S","angle":0,"enabled":true,"min":-22.5,"max":22.5},{"suffix":"_SW","angle":45,"enabled":true,"min":22.5,"max":67.5},{"suffix":"_W","angle":90,"enabled":true,"min":67.5,"max":112.5},{"suffix":"_NW","angle":135,"enabled":true,"min":112.5,"max":157.5},{"suffix":"_N","angle":180,"enabled":true,"min":157.5,"max":202.5},{"suffix":"_NE","angle":225,"enabled":true,"min":202.5,"max":247.5},{"suffix":"_E","angle":270,"enabled":true,"min":247.5,"max":292.5},{"suffix":"_SE","angle":315,"enabled":true,"min":292.5,"max":337.5}]},"custom":[],"instance":{"name":"Wall","uuid":"06B7B370-34B2-46FA-938E-F3BC58059E52","parent":null,"pos":{"x":0,"y":3.4,"z":0},"rot":{"x":0,"y":0,"z":0,"order":"XYZ"},"sca":{"x":1,"y":1,"z":1},"custom":[]}}},"mesh":1},{"matrix":[2.220446049250313e-16,0,-1,0,0,1,0,0,1,0,2.220446049250313e-16,0,-9.000000000000002,3.4000000000000004,9,1],"name":"Wall","extras":{"data":{"name":"Wall","points":[{"name":"Origin","pos":{"x":0,"y":0,"z":0}}],"billboard":{"enabled":false,"y":false},"directional":{"enabled":false,"mode":"cameraAngle","angles":[{"suffix":"_S","angle":0,"enabled":true,"min":-22.5,"max":22.5},{"suffix":"_SW","angle":45,"enabled":true,"min":22.5,"max":67.5},{"suffix":"_W","angle":90,"enabled":true,"min":67.5,"max":112.5},{"suffix":"_NW","angle":135,"enabled":true,"min":112.5,"max":157.5},{"suffix":"_N","angle":180,"enabled":true,"min":157.5,"max":202.5},{"suffix":"_NE","angle":225,"enabled":true,"min":202.5,"max":247.5},{"suffix":"_E","angle":270,"enabled":true,"min":247.5,"max":292.5},{"suffix":"_SE","angle":315,"enabled":true,"min":292.5,"max":337.5}]},"custom":[],"instance":{"name":"Wall","uuid":"6CA080CF-E824-45BE-9FB2-13F860E9B381","parent":null,"pos":{"x":-9,"y":3.4,"z":9},"rot":{"x":0,"y":1.5707963267948966,"z":0,"order":"XYZ"},"sca":{"x":1,"y":1,"z":1},"custom":[]}}},"mesh":2},{"matrix":[2.220446049250313e-16,0,1,0,0,1,0,0,-1,0,2.220446049250313e-16,0,9,3.4000000000000017,8.999999999999998,1],"name":"Wall","extras":{"data":{"name":"Wall","points":[{"name":"Origin","pos":{"x":0,"y":0,"z":0}}],"billboard":{"enabled":false,"y":false},"directional":{"enabled":false,"mode":"cameraAngle","angles":[{"suffix":"_S","angle":0,"enabled":true,"min":-22.5,"max":22.5},{"suffix":"_SW","angle":45,"enabled":true,"min":22.5,"max":67.5},{"suffix":"_W","angle":90,"enabled":true,"min":67.5,"max":112.5},{"suffix":"_NW","angle":135,"enabled":true,"min":112.5,"max":157.5},{"suffix":"_N","angle":180,"enabled":true,"min":157.5,"max":202.5},{"suffix":"_NE","angle":225,"enabled":true,"min":202.5,"max":247.5},{"suffix":"_E","angle":270,"enabled":true,"min":247.5,"max":292.5},{"suffix":"_SE","angle":315,"enabled":true,"min":292.5,"max":337.5}]},"custom":[],"instance":{"name":"Wall","uuid":"586DE4BF-A5A1-4A0A-9866-EF7B92DBCF15","parent":null,"pos":{"x":9,"y":3.4,"z":9},"rot":{"x":0,"y":-1.5707963267948966,"z":0,"order":"XYZ"},"sca":{"x":1,"y":1,"z":1},"custom":[]}}},"mesh":3}],"bufferViews":[{"buffer":0,"byteOffset":0,"byteLength":8712,"target":34962,"byteStride":12},{"buffer":0,"byteOffset":8712,"byteLength":8712,"target":34962,"byteStride":12},{"buffer":0,"byteOffset":17424,"byteLength":5808,"target":34962,"byteStride":8},{"buffer":0,"byteOffset":23232,"byteLength":1752,"target":34963},{"buffer":0,"byteOffset":24984,"byteLength":432,"target":34963},{"buffer":0,"byteOffset":25416,"byteLength":2304,"target":34962,"byteStride":12},{"buffer":0,"byteOffset":27720,"byteLength":2304,"target":34962,"byteStride":12},{"buffer":0,"byteOffset":30024,"byteLength":1536,"target":34962,"byteStride":8},{"buffer":0,"byteOffset":31560,"byteLength":576,"target":34963},{"buffer":0,"byteOffset":32136,"byteLength":2304,"target":34962,"byteStride":12},{"buffer":0,"byteOffset":34440,"byteLength":2304,"target":34962,"byteStride":12},{"buffer":0,"byteOffset":36744,"byteLength":1536,"target":34962,"byteStride":8},{"buffer":0,"byteOffset":38280,"byteLength":576,"target":34963},{"buffer":0,"byteOffset":38856,"byteLength":2304,"target":34962,"byteStride":12},{"buffer":0,"byteOffset":41160,"byteLength":2304,"target":34962,"byteStride":12},{"buffer":0,"byteOffset":43464,"byteLength":1536,"target":34962,"byteStride":8},{"buffer":0,"byteOffset":45000,"byteLength":576,"target":34963}],"buffers":[{"byteLength":45576,"uri":"data:application/octet-stream;base64,"}],"accessors":[{"bufferView":0,"componentType":5126,"count":726,"max":[21,7.400000095367432,18],"min":[-9,-2.5999999046325684,-11.999998092651367],"type":"VEC3"},{"bufferView":1,"componentType":5126,"count":726,"max":[1,1,1],"min":[-1,-1,-1],"type":"VEC3"},{"bufferView":2,"componentType":5126,"count":726,"max":[0.9375,0.782608687877655],"min":[0.03125,0.11235952377319336],"type":"VEC2"},{"bufferView":3,"componentType":5123,"count":876,"max":[583],"min":[0],"type":"SCALAR"},{"bufferView":4,"componentType":5123,"count":216,"max":[725],"min":[584],"type":"SCALAR"},{"bufferView":5,"componentType":5126,"count":192,"max":[9,5.5,1.7763568394002505e-15],"min":[-9,-3.4000000953674316,-1.7763568394002505e-15],"type":"VEC3"},{"bufferView":6,"componentType":5126,"count":192,"max":[0,0,1],"min":[-2.9605948205663494e-16,0,1],"type":"VEC3"},{"bufferView":7,"componentType":5126,"count":192,"max":[0.4117647111415863,0.5652173757553101],"min":[0,0.47826087474823],"type":"VEC2"},{"bufferView":8,"componentType":5123,"count":288,"max":[191],"min":[0],"type":"SCALAR"},{"bufferView":9,"componentType":5126,"count":192,"max":[9,5.5,1.7763568394002505e-15],"min":[-9,-3.4000000953674316,-1.7763568394002505e-15],"type":"VEC3"},{"bufferView":10,"componentType":5126,"count":192,"max":[0,0,1],"min":[-2.9605948205663494e-16,0,1],"type":"VEC3"},{"bufferView":11,"componentType":5126,"count":192,"max":[0.4117647111415863,0.5652173757553101],"min":[0,0.47826087474823],"type":"VEC2"},{"bufferView":12,"componentType":5123,"count":288,"max":[191],"min":[0],"type":"SCALAR"},{"bufferView":13,"componentType":5126,"count":192,"max":[9,5.5,1.7763568394002505e-15],"min":[-9,-3.4000000953674316,-1.7763568394002505e-15],"type":"VEC3"},{"bufferView":14,"componentType":5126,"count":192,"max":[0,0,1],"min":[-2.9605948205663494e-16,0,1],"type":"VEC3"},{"bufferView":15,"componentType":5126,"count":192,"max":[0.4117647111415863,0.5652173757553101],"min":[0,0.47826087474823],"type":"VEC2"},{"bufferView":16,"componentType":5123,"count":288,"max":[191],"min":[0],"type":"SCALAR"}],"materials":[{"pbrMetallicRoughness":{"metallicFactor":0,"roughnessFactor":1,"baseColorTexture":{"index":0}},"alphaMode":"MASK","alphaCutoff":0.01,"name":"texture_2"},{"pbrMetallicRoughness":{"metallicFactor":0,"roughnessFactor":1,"baseColorTexture":{"index":1}},"alphaMode":"MASK","alphaCutoff":0.01,"name":"texture_3"}],"textures":[{"sampler":0,"source":0,"name":"texture_2"},{"sampler":1,"source":1,"name":"texture_3"}],"samplers":[{"magFilter":9728,"minFilter":9728,"wrapS":33071,"wrapT":33071},{"magFilter":9728,"minFilter":9728,"wrapS":33071,"wrapT":33071}],"images":[{"mimeType":"image/png","uri":"data:image/png;base64,"},{"mimeType":"image/png","uri":"data:image/png;base64,"}],"meshes":[{"primitives":[{"mode":4,"attributes":{"POSITION":0,"NORMAL":1,"TEXCOORD_0":2},"indices":3,"material":0},{"mode":4,"attributes":{"POSITION":0,"NORMAL":1,"TEXCOORD_0":2},"indices":4,"material":1}]},{"primitives":[{"mode":4,"attributes":{"POSITION":5,"NORMAL":6,"TEXCOORD_0":7},"indices":8,"material":0}]},{"primitives":[{"mode":4,"attributes":{"POSITION":9,"NORMAL":10,"TEXCOORD_0":11},"indices":12,"material":0}]},{"primitives":[{"mode":4,"attributes":{"POSITION":13,"NORMAL":14,"TEXCOORD_0":15},"indices":16,"material":0}]}]}