{
	"asset":{
		"generator":"Khronos glTF Blender I/O v3.5.30",
		"version":"2.0"
	},
	"scene":0,
	"scenes":[
		{
			"name":"Scene",
			"nodes":[
				7,
				8,
				12
			]
		}
	],
	"nodes":[
		{
			"mesh":0,
			"name":"Cube.001",
			"rotation":[
				0,
				0.08715574443340302,
				0,
				0.9961947202682495
			],
			"scale":[
				0.2499999850988388,
				0.10000000149011612,
				5
			],
			"translation":[
				2.2503366470336914,
				-0.024925168603658676,
				0.021902984008193016
			]
		},
		{
			"mesh":1,
			"name":"Cube.002",
			"rotation":[
				0,
				-0.08715574443340302,
				0,
				0.9961947202682495
			],
			"scale":[
				0.2499999850988388,
				0.10000000149011612,
				5
			],
			"translation":[
				-1.7496633529663086,
				-0.024925168603658676,
				0.021902984008193016
			]
		},
		{
			"mesh":2,
			"name":"Cube.003",
			"rotation":[
				0,
				0.7071068286895752,
				0,
				0.7071068286895752
			],
			"scale":[
				0.25,
				0.10000000149011612,
				2.4200000762939453
			],
			"translation":[
				0.2503366470336914,
				-0.17492514848709106,
				1.791902780532837
			]
		},
		{
			"mesh":3,
			"name":"Cube.004",
			"rotation":[
				0.5000000596046448,
				-0.5000000596046448,
				-0.5000000596046448,
				0.5
			],
			"scale":[
				0.25,
				0.09999999403953552,
				2.9800000190734863
			],
			"translation":[
				0.2503366470336914,
				-0.024925202131271362,
				-0.5280968546867371
			]
		},
		{
			"mesh":4,
			"name":"Cube.005",
			"scale":[
				0.25,
				0.10000000149011612,
				5
			],
			"translation":[
				0.2503366470336914,
				-0.02492523193359375,
				-2.9680964946746826
			]
		},
		{
			"mesh":5,
			"name":"Cube.006",
			"rotation":[
				0.2588190734386444,
				0,
				0,
				0.965925931930542
			],
			"scale":[
				0.25,
				0.10000000149011612,
				5
			],
			"translation":[
				0.2503366470336914,
				-2.5249252319335938,
				0.5219030380249023
			]
		},
		{
			"mesh":6,
			"name":"Cube.007",
			"rotation":[
				0,
				0.7071068286895752,
				0,
				0.7071068286895752
			],
			"scale":[
				0.25,
				0.10000000149011612,
				2.009999990463257
			],
			"translation":[
				0.2503366470336914,
				-0.1749250888824463,
				-3.528096914291382
			]
		},
		{
			"children":[
				0,
				1,
				2,
				3,
				4,
				5,
				6
			],
			"name":"Empty",
			"rotation":[
				0.5562956929206848,
				0,
				0,
				0.8309844136238098
			],
			"translation":[
				-0.2503366470336914,
				4.7249250411987305,
				-0.021903038024902344
			]
		},
		{
			"mesh":7,
			"name":"Cube.008",
			"scale":[
				17.670000076293945,
				0.1899999976158142,
				15.229999542236328
			]
		},
		{
			"mesh":8,
			"name":"Cube",
			"rotation":[
				0,
				0,
				0.7071068286895752,
				0.7071068286895752
			],
			"scale":[
				17.670000076293945,
				0.1899999976158142,
				15.229999542236328
			],
			"translation":[
				19.374752044677734,
				-4.531032085418701,
				-8.916728973388672
			]
		},
		{
			"mesh":9,
			"name":"Cube.009",
			"rotation":[
				0.5,
				0.5,
				0.5,
				0.5
			],
			"scale":[
				17.670000076293945,
				0.1899999976158142,
				18.599998474121094
			],
			"translation":[
				1.6747522354125977,
				-4.531032085418701,
				-23.926727294921875
			]
		},
		{
			"mesh":10,
			"name":"Cube.010",
			"rotation":[
				0,
				0,
				0.7071068286895752,
				0.7071068286895752
			],
			"scale":[
				17.670000076293945,
				0.1899999976158142,
				15.229999542236328
			],
			"translation":[
				-16.0052490234375,
				-4.531032085418701,
				-8.916728973388672
			]
		},
		{
			"children":[
				9,
				10,
				11
			],
			"name":"Walls",
			"translation":[
				-1.6747522354125977,
				4.021032333374023,
				8.916728973388672
			]
		}
	],
	"meshes":[
		{
			"name":"Cube.002",
			"primitives":[
				{
					"attributes":{
						"POSITION":0,
						"TEXCOORD_0":1,
						"NORMAL":2
					},
					"indices":3
				}
			]
		},
		{
			"name":"Cube.003",
			"primitives":[
				{
					"attributes":{
						"POSITION":4,
						"TEXCOORD_0":5,
						"NORMAL":6
					},
					"indices":3
				}
			]
		},
		{
			"name":"Cube.004",
			"primitives":[
				{
					"attributes":{
						"POSITION":7,
						"TEXCOORD_0":8,
						"NORMAL":9
					},
					"indices":3
				}
			]
		},
		{
			"name":"Cube.005",
			"primitives":[
				{
					"attributes":{
						"POSITION":10,
						"TEXCOORD_0":11,
						"NORMAL":12
					},
					"indices":3
				}
			]
		},
		{
			"name":"Cube.006",
			"primitives":[
				{
					"attributes":{
						"POSITION":13,
						"TEXCOORD_0":14,
						"NORMAL":15
					},
					"indices":3
				}
			]
		},
		{
			"name":"Cube.007",
			"primitives":[
				{
					"attributes":{
						"POSITION":16,
						"TEXCOORD_0":17,
						"NORMAL":18
					},
					"indices":3
				}
			]
		},
		{
			"name":"Cube.008",
			"primitives":[
				{
					"attributes":{
						"POSITION":19,
						"TEXCOORD_0":20,
						"NORMAL":21
					},
					"indices":3
				}
			]
		},
		{
			"name":"Cube.009",
			"primitives":[
				{
					"attributes":{
						"POSITION":22,
						"TEXCOORD_0":23,
						"NORMAL":24
					},
					"indices":25
				}
			]
		},
		{
			"name":"Cube.001",
			"primitives":[
				{
					"attributes":{
						"POSITION":26,
						"TEXCOORD_0":27,
						"NORMAL":28
					},
					"indices":3
				}
			]
		},
		{
			"name":"Cube.010",
			"primitives":[
				{
					"attributes":{
						"POSITION":29,
						"TEXCOORD_0":30,
						"NORMAL":31
					},
					"indices":3
				}
			]
		},
		{
			"name":"Cube.011",
			"primitives":[
				{
					"attributes":{
						"POSITION":32,
						"TEXCOORD_0":33,
						"NORMAL":34
					},
					"indices":3
				}
			]
		}
	],
	"accessors":[
		{
			"bufferView":0,
			"componentType":5126,
			"count":24,
			"max":[
				1,
				1,
				1
			],
			"min":[
				-1,
				-1,
				-1
			],
			"type":"VEC3"
		},
		{
			"bufferView":1,
			"componentType":5126,
			"count":24,
			"type":"VEC2"
		},
		{
			"bufferView":2,
			"componentType":5126,
			"count":24,
			"type":"VEC3"
		},
		{
			"bufferView":3,
			"componentType":5123,
			"count":36,
			"type":"SCALAR"
		},
		{
			"bufferView":4,
			"componentType":5126,
			"count":24,
			"max":[
				1,
				1,
				1
			],
			"min":[
				-1,
				-1,
				-1
			],
			"type":"VEC3"
		},
		{
			"bufferView":5,
			"componentType":5126,
			"count":24,
			"type":"VEC2"
		},
		{
			"bufferView":6,
			"componentType":5126,
			"count":24,
			"type":"VEC3"
		},
		{
			"bufferView":7,
			"componentType":5126,
			"count":24,
			"max":[
				1,
				1,
				1
			],
			"min":[
				-1,
				-1,
				-1
			],
			"type":"VEC3"
		},
		{
			"bufferView":8,
			"componentType":5126,
			"count":24,
			"type":"VEC2"
		},
		{
			"bufferView":9,
			"componentType":5126,
			"count":24,
			"type":"VEC3"
		},
		{
			"bufferView":10,
			"componentType":5126,
			"count":24,
			"max":[
				1,
				1,
				1
			],
			"min":[
				-1,
				-1,
				-1
			],
			"type":"VEC3"
		},
		{
			"bufferView":11,
			"componentType":5126,
			"count":24,
			"type":"VEC2"
		},
		{
			"bufferView":12,
			"componentType":5126,
			"count":24,
			"type":"VEC3"
		},
		{
			"bufferView":13,
			"componentType":5126,
			"count":24,
			"max":[
				1,
				1,
				1
			],
			"min":[
				-1,
				-1,
				-1
			],
			"type":"VEC3"
		},
		{
			"bufferView":14,
			"componentType":5126,
			"count":24,
			"type":"VEC2"
		},
		{
			"bufferView":15,
			"componentType":5126,
			"count":24,
			"type":"VEC3"
		},
		{
			"bufferView":16,
			"componentType":5126,
			"count":24,
			"max":[
				1,
				1,
				1
			],
			"min":[
				-1,
				-1,
				-1
			],
			"type":"VEC3"
		},
		{
			"bufferView":17,
			"componentType":5126,
			"count":24,
			"type":"VEC2"
		},
		{
			"bufferView":18,
			"componentType":5126,
			"count":24,
			"type":"VEC3"
		},
		{
			"bufferView":19,
			"componentType":5126,
			"count":24,
			"max":[
				1,
				1,
				1
			],
			"min":[
				-1,
				-1,
				-1
			],
			"type":"VEC3"
		},
		{
			"bufferView":20,
			"componentType":5126,
			"count":24,
			"type":"VEC2"
		},
		{
			"bufferView":21,
			"componentType":5126,
			"count":24,
			"type":"VEC3"
		},
		{
			"bufferView":22,
			"componentType":5126,
			"count":14,
			"max":[
				1,
				1,
				1
			],
			"min":[
				-1,
				-1,
				-1
			],
			"type":"VEC3"
		},
		{
			"bufferView":23,
			"componentType":5126,
			"count":14,
			"type":"VEC2"
		},
		{
			"bufferView":24,
			"componentType":5126,
			"count":14,
			"type":"VEC3"
		},
		{
			"bufferView":25,
			"componentType":5123,
			"count":36,
			"type":"SCALAR"
		},
		{
			"bufferView":26,
			"componentType":5126,
			"count":24,
			"max":[
				1,
				1,
				1
			],
			"min":[
				-1,
				-1,
				-1
			],
			"type":"VEC3"
		},
		{
			"bufferView":27,
			"componentType":5126,
			"count":24,
			"type":"VEC2"
		},
		{
			"bufferView":28,
			"componentType":5126,
			"count":24,
			"type":"VEC3"
		},
		{
			"bufferView":29,
			"componentType":5126,
			"count":24,
			"max":[
				1,
				1,
				1
			],
			"min":[
				-1,
				-1,
				-1
			],
			"type":"VEC3"
		},
		{
			"bufferView":30,
			"componentType":5126,
			"count":24,
			"type":"VEC2"
		},
		{
			"bufferView":31,
			"componentType":5126,
			"count":24,
			"type":"VEC3"
		},
		{
			"bufferView":32,
			"componentType":5126,
			"count":24,
			"max":[
				1,
				1,
				1
			],
			"min":[
				-1,
				-1,
				-1
			],
			"type":"VEC3"
		},
		{
			"bufferView":33,
			"componentType":5126,
			"count":24,
			"type":"VEC2"
		},
		{
			"bufferView":34,
			"componentType":5126,
			"count":24,
			"type":"VEC3"
		}
	],
	"bufferViews":[
		{
			"buffer":0,
			"byteLength":288,
			"byteOffset":0,
			"target":34962
		},
		{
			"buffer":0,
			"byteLength":192,
			"byteOffset":288,
			"target":34962
		},
		{
			"buffer":0,
			"byteLength":288,
			"byteOffset":480,
			"target":34962
		},
		{
			"buffer":0,
			"byteLength":72,
			"byteOffset":768,
			"target":34963
		},
		{
			"buffer":0,
			"byteLength":288,
			"byteOffset":840,
			"target":34962
		},
		{
			"buffer":0,
			"byteLength":192,
			"byteOffset":1128,
			"target":34962
		},
		{
			"buffer":0,
			"byteLength":288,
			"byteOffset":1320,
			"target":34962
		},
		{
			"buffer":0,
			"byteLength":288,
			"byteOffset":1608,
			"target":34962
		},
		{
			"buffer":0,
			"byteLength":192,
			"byteOffset":1896,
			"target":34962
		},
		{
			"buffer":0,
			"byteLength":288,
			"byteOffset":2088,
			"target":34962
		},
		{
			"buffer":0,
			"byteLength":288,
			"byteOffset":2376,
			"target":34962
		},
		{
			"buffer":0,
			"byteLength":192,
			"byteOffset":2664,
			"target":34962
		},
		{
			"buffer":0,
			"byteLength":288,
			"byteOffset":2856,
			"target":34962
		},
		{
			"buffer":0,
			"byteLength":288,
			"byteOffset":3144,
			"target":34962
		},
		{
			"buffer":0,
			"byteLength":192,
			"byteOffset":3432,
			"target":34962
		},
		{
			"buffer":0,
			"byteLength":288,
			"byteOffset":3624,
			"target":34962
		},
		{
			"buffer":0,
			"byteLength":288,
			"byteOffset":3912,
			"target":34962
		},
		{
			"buffer":0,
			"byteLength":192,
			"byteOffset":4200,
			"target":34962
		},
		{
			"buffer":0,
			"byteLength":288,
			"byteOffset":4392,
			"target":34962
		},
		{
			"buffer":0,
			"byteLength":288,
			"byteOffset":4680,
			"target":34962
		},
		{
			"buffer":0,
			"byteLength":192,
			"byteOffset":4968,
			"target":34962
		},
		{
			"buffer":0,
			"byteLength":288,
			"byteOffset":5160,
			"target":34962
		},
		{
			"buffer":0,
			"byteLength":168,
			"byteOffset":5448,
			"target":34962
		},
		{
			"buffer":0,
			"byteLength":112,
			"byteOffset":5616,
			"target":34962
		},
		{
			"buffer":0,
			"byteLength":168,
			"byteOffset":5728,
			"target":34962
		},
		{
			"buffer":0,
			"byteLength":72,
			"byteOffset":5896,
			"target":34963
		},
		{
			"buffer":0,
			"byteLength":288,
			"byteOffset":5968,
			"target":34962
		},
		{
			"buffer":0,
			"byteLength":192,
			"byteOffset":6256,
			"target":34962
		},
		{
			"buffer":0,
			"byteLength":288,
			"byteOffset":6448,
			"target":34962
		},
		{
			"buffer":0,
			"byteLength":288,
			"byteOffset":6736,
			"target":34962
		},
		{
			"buffer":0,
			"byteLength":192,
			"byteOffset":7024,
			"target":34962
		},
		{
			"buffer":0,
			"byteLength":288,
			"byteOffset":7216,
			"target":34962
		},
		{
			"buffer":0,
			"byteLength":288,
			"byteOffset":7504,
			"target":34962
		},
		{
			"buffer":0,
			"byteLength":192,
			"byteOffset":7792,
			"target":34962
		},
		{
			"buffer":0,
			"byteLength":288,
			"byteOffset":7984,
			"target":34962
		}
	],
	"buffers":[
		{
			"byteLength":8272,
			"uri":"data:application/octet-stream;base64,"
		}
	]
}
