{"asset":{"version":"2.0","generator":"THREE.GLTFExporter"},"scenes":[{"name":"default","nodes":[0,1,2,3]}],"scene":0,"nodes":[{"name":"default","mesh":0},{"matrix":[1,0,0,0,0,1,0,0,0,0,1,0,0,3.4,0,1],"name":"Wall","extras":{"data":{"name":"Wall","points":[{"name":"Origin","pos":{"x":0,"y":0,"z":0}}],"billboard":{"enabled":false,"y":false},"directional":{"enabled":false,"mode":"cameraAngle","angles":[{"suffix":"_S","angle":0,"enabled":true,"min":-22.5,"max":22.5},{"suffix":"_SW","angle":45,"enabled":true,"min":22.5,"max":67.5},{"suffix":"_W","angle":90,"enabled":true,"min":67.5,"max":112.5},{"suffix":"_NW","angle":135,"enabled":true,"min":112.5,"max":157.5},{"suffix":"_N","angle":180,"enabled":true,"min":157.5,"max":202.5},{"suffix":"_NE","angle":225,"enabled":true,"min":202.5,"max":247.5},{"suffix":"_E","angle":270,"enabled":true,"min":247.5,"max":292.5},{"suffix":"_SE","angle":315,"enabled":true,"min":292.5,"max":337.5}]},"custom":[],"instance":{"name":"Wall","uuid":"9657ADDF-6EF1-4D2D-93CA-E53FB41B4E5C","parent":null,"pos":{"x":0,"y":3.4,"z":0},"rot":{"x":0,"y":0,"z":0,"order":"XYZ"},"sca":{"x":1,"y":1,"z":1},"custom":[]}}},"mesh":1},{"matrix":[2.220446049250313e-16,0,-1,0,0,1,0,0,1,0,2.220446049250313e-16,0,-9.000000000000002,3.4000000000000004,9,1],"name":"Wall","extras":{"data":{"name":"Wall","points":[{"name":"Origin","pos":{"x":0,"y":0,"z":0}}],"billboard":{"enabled":false,"y":false},"directional":{"enabled":false,"mode":"cameraAngle","angles":[{"suffix":"_S","angle":0,"enabled":true,"min":-22.5,"max":22.5},{"suffix":"_SW","angle":45,"enabled":true,"min":22.5,"max":67.5},{"suffix":"_W","angle":90,"enabled":true,"min":67.5,"max":112.5},{"suffix":"_NW","angle":135,"enabled":true,"min":112.5,"max":157.5},{"suffix":"_N","angle":180,"enabled":true,"min":157.5,"max":202.5},{"suffix":"_NE","angle":225,"enabled":true,"min":202.5,"max":247.5},{"suffix":"_E","angle":270,"enabled":true,"min":247.5,"max":292.5},{"suffix":"_SE","angle":315,"enabled":true,"min":292.5,"max":337.5}]},"custom":[],"instance":{"name":"Wall","uuid":"BD76A03E-C77A-4FEA-AFF1-489115525441","parent":null,"pos":{"x":-9,"y":3.4,"z":9},"rot":{"x":0,"y":1.5707963267948966,"z":0,"order":"XYZ"},"sca":{"x":1,"y":1,"z":1},"custom":[]}}},"mesh":2},{"matrix":[2.220446049250313e-16,0,1,0,0,1,0,0,-1,0,2.220446049250313e-16,0,9,3.4000000000000017,8.999999999999998,1],"name":"Wall","extras":{"data":{"name":"Wall","points":[{"name":"Origin","pos":{"x":0,"y":0,"z":0}}],"billboard":{"enabled":false,"y":false},"directional":{"enabled":false,"mode":"cameraAngle","angles":[{"suffix":"_S","angle":0,"enabled":true,"min":-22.5,"max":22.5},{"suffix":"_SW","angle":45,"enabled":true,"min":22.5,"max":67.5},{"suffix":"_W","angle":90,"enabled":true,"min":67.5,"max":112.5},{"suffix":"_NW","angle":135,"enabled":true,"min":112.5,"max":157.5},{"suffix":"_N","angle":180,"enabled":true,"min":157.5,"max":202.5},{"suffix":"_NE","angle":225,"enabled":true,"min":202.5,"max":247.5},{"suffix":"_E","angle":270,"enabled":true,"min":247.5,"max":292.5},{"suffix":"_SE","angle":315,"enabled":true,"min":292.5,"max":337.5}]},"custom":[],"instance":{"name":"Wall","uuid":"22BCD27D-8EEC-423E-A9BA-026A79084127","parent":null,"pos":{"x":9,"y":3.4,"z":9},"rot":{"x":0,"y":-1.5707963267948966,"z":0,"order":"XYZ"},"sca":{"x":1,"y":1,"z":1},"custom":[]}}},"mesh":3}],"bufferViews":[{"buffer":0,"byteOffset":0,"byteLength":2592,"target":34962,"byteStride":12},{"buffer":0,"byteOffset":2592,"byteLength":2592,"target":34962,"byteStride":12},{"buffer":0,"byteOffset":5184,"byteLength":1728,"target":34962,"byteStride":8},{"buffer":0,"byteOffset":6912,"byteLength":648,"target":34963},{"buffer":0,"byteOffset":7560,"byteLength":2304,"target":34962,"byteStride":12},{"buffer":0,"byteOffset":9864,"byteLength":2304,"target":34962,"byteStride":12},{"buffer":0,"byteOffset":12168,"byteLength":1536,"target":34962,"byteStride":8},{"buffer":0,"byteOffset":13704,"byteLength":576,"target":34963},{"buffer":0,"byteOffset":14280,"byteLength":2304,"target":34962,"byteStride":12},{"buffer":0,"byteOffset":16584,"byteLength":2304,"target":34962,"byteStride":12},{"buffer":0,"byteOffset":18888,"byteLength":1536,"target":34962,"byteStride":8},{"buffer":0,"byteOffset":20424,"byteLength":576,"target":34963},{"buffer":0,"byteOffset":21000,"byteLength":2304,"target":34962,"byteStride":12},{"buffer":0,"byteOffset":23304,"byteLength":2304,"target":34962,"byteStride":12},{"buffer":0,"byteOffset":25608,"byteLength":1536,"target":34962,"byteStride":8},{"buffer":0,"byteOffset":27144,"byteLength":576,"target":34963}],"buffers":[{"byteLength":27720,"uri":"data:application/octet-stream;base64,"}],"accessors":[{"bufferView":0,"componentType":5126,"count":216,"max":[9,0.4000000059604645,18],"min":[-9,0.4000000059604645,0],"type":"VEC3"},{"bufferView":1,"componentType":5126,"count":216,"max":[0,1,0],"min":[0,1,0],"type":"VEC3"},{"bufferView":2,"componentType":5126,"count":216,"max":[0.8235294222831726,0.6521738767623901],"min":[0.6470588445663452,0.5652173757553101],"type":"VEC2"},{"bufferView":3,"componentType":5123,"count":324,"max":[215],"min":[0],"type":"SCALAR"},{"bufferView":4,"componentType":5126,"count":192,"max":[9,5.5,1.7763568394002505e-15],"min":[-9,-3.4000000953674316,-1.7763568394002505e-15],"type":"VEC3"},{"bufferView":5,"componentType":5126,"count":192,"max":[0,0,1],"min":[-2.9605948205663494e-16,0,1],"type":"VEC3"},{"bufferView":6,"componentType":5126,"count":192,"max":[0.4117647111415863,0.5652173757553101],"min":[0,0.47826087474823],"type":"VEC2"},{"bufferView":7,"componentType":5123,"count":288,"max":[191],"min":[0],"type":"SCALAR"},{"bufferView":8,"componentType":5126,"count":192,"max":[9,5.5,1.7763568394002505e-15],"min":[-9,-3.4000000953674316,-1.7763568394002505e-15],"type":"VEC3"},{"bufferView":9,"componentType":5126,"count":192,"max":[0,0,1],"min":[-2.9605948205663494e-16,0,1],"type":"VEC3"},{"bufferView":10,"componentType":5126,"count":192,"max":[0.4117647111415863,0.5652173757553101],"min":[0,0.47826087474823],"type":"VEC2"},{"bufferView":11,"componentType":5123,"count":288,"max":[191],"min":[0],"type":"SCALAR"},{"bufferView":12,"componentType":5126,"count":192,"max":[9,5.5,1.7763568394002505e-15],"min":[-9,-3.4000000953674316,-1.7763568394002505e-15],"type":"VEC3"},{"bufferView":13,"componentType":5126,"count":192,"max":[0,0,1],"min":[-2.9605948205663494e-16,0,1],"type":"VEC3"},{"bufferView":14,"componentType":5126,"count":192,"max":[0.4117647111415863,0.5652173757553101],"min":[0,0.47826087474823],"type":"VEC2"},{"bufferView":15,"componentType":5123,"count":288,"max":[191],"min":[0],"type":"SCALAR"}],"materials":[{"pbrMetallicRoughness":{"metallicFactor":0,"roughnessFactor":1,"baseColorTexture":{"index":0}},"alphaMode":"MASK","alphaCutoff":0.01,"name":"texture_2"}],"textures":[{"sampler":0,"source":0,"name":"texture_2"}],"samplers":[{"magFilter":9728,"minFilter":9728,"wrapS":33071,"wrapT":33071}],"images":[{"mimeType":"image/png","uri":"data:image/png;base64,"}],"meshes":[{"primitives":[{"mode":4,"attributes":{"POSITION":0,"NORMAL":1,"TEXCOORD_0":2},"indices":3,"material":0}]},{"primitives":[{"mode":4,"attributes":{"POSITION":4,"NORMAL":5,"TEXCOORD_0":6},"indices":7,"material":0}]},{"primitives":[{"mode":4,"attributes":{"POSITION":8,"NORMAL":9,"TEXCOORD_0":10},"indices":11,"material":0}]},{"primitives":[{"mode":4,"attributes":{"POSITION":12,"NORMAL":13,"TEXCOORD_0":14},"indices":15,"material":0}]}]}